# xmcd
#
# Track frame offsets: 
#        187
#        43662
#        81045
#        116537
#
# Disc length: 2242 seconds
#
# Revision: 4
# Processed by: cddbd v1.5.2PL0 Copyright (c) Steve Scherf et al.
# Submitted via: ExactAudioCopy v1.0b3
#
DISCID=2808c004
DTITLE=すぎやまこういち - 交響曲イデオン SYMPHONY "IDEON"
DYEAR=1986
DGENRE=Anime
TTITLE0=第1楽章
TTITLE1=第2楽章
TTITLE2=第3楽章
TTITLE3=第4楽章
EXTD=
EXTT0=
EXTT1=
EXTT2=
EXTT3=
PLAYORDER=
